<svg version="1.1" id="Layer_1" xmlns="http://www.w3.org/2000/svg" xmlns:xlink="http://www.w3.org/1999/xlink" x="0px" y="0px"
	 width="100%" viewBox="0 0 1050 600" enable-background="new 0 0 1050 600" xml:space="preserve">
<path fill="none" opacity="1.000000" stroke="none" 
	d="
M948.000000,601.000000 
	C632.000122,601.000000 316.500183,601.000000 1.000212,601.000000 
	C1.000141,401.000153 1.000141,201.000305 1.000071,1.000346 
	C350.999756,1.000231 700.999512,1.000231 1050.999512,1.000115 
	C1050.999634,200.999680 1050.999634,400.999359 1050.999756,600.999512 
	C1016.833313,601.000000 982.666687,601.000000 948.000000,601.000000 
M423.731598,306.099823 
	C425.852112,306.399750 427.971008,306.945251 430.093414,306.959229 
	C442.581024,307.041595 455.070282,306.934113 467.556519,307.088837 
	C469.022186,307.106995 471.404022,308.011841 471.773346,309.063324 
	C473.621124,314.324127 471.554840,316.965515 465.921265,316.982513 
	C451.268616,317.026672 436.615723,316.997559 421.962952,316.997681 
	C420.180389,316.997711 418.397827,316.997711 416.830688,316.997711 
	C416.613617,321.618591 416.426880,325.593384 416.222351,329.947388 
	C436.680695,329.947388 456.473175,330.147430 476.251587,329.711273 
	C478.927582,329.652252 482.241180,326.928802 484.036804,324.525574 
	C489.165588,317.661163 487.626587,309.487091 486.209808,302.020081 
	C484.851410,294.860870 482.585297,294.001160 475.230560,293.999146 
	C462.076355,293.995544 448.920410,293.878876 435.769135,294.075073 
	C432.092377,294.129974 430.846924,293.113831 430.871246,289.316681 
	C430.894958,285.616302 432.355133,284.902252 435.632965,284.944427 
	C447.120178,285.092285 458.610443,285.001373 470.099548,285.001251 
	C479.669525,285.001129 479.576324,285.006287 479.057953,275.454987 
	C478.918182,272.879364 478.063812,271.959198 475.505188,271.970215 
	C459.687164,272.038330 443.867615,271.895630 428.050873,272.053070 
	C421.359711,272.119659 416.013763,277.931946 416.005463,284.523651 
	C416.001678,287.520813 416.337036,290.563293 415.935516,293.505676 
	C415.108521,299.565918 418.572845,302.974487 423.731598,306.099823 
M866.498169,316.349335 
	C853.401917,316.349335 840.305603,316.349335 827.195435,316.349335 
	C827.195435,305.791138 827.195435,295.918121 827.195435,286.053650 
	C839.219727,286.053650 850.830627,286.053650 862.981628,286.053650 
	C862.981628,293.843262 862.981628,301.409210 862.981628,309.049225 
	C868.108704,309.049225 872.688843,309.049225 877.609680,309.049225 
	C877.609680,300.578583 877.634583,292.432861 877.602905,284.287384 
	C877.569763,275.765991 873.907227,272.010010 865.505554,271.983643 
	C851.672791,271.940216 837.839661,271.947357 824.006775,271.985077 
	C815.853638,272.007294 812.217346,275.703003 812.184448,284.004395 
	C812.139526,295.337250 812.145142,306.670471 812.179443,318.003357 
	C812.204956,326.413269 815.937561,330.108643 824.462769,330.123718 
	C842.795532,330.156128 861.128418,330.141022 879.461243,330.122620 
	C880.749207,330.121307 882.037048,329.933624 883.257080,329.837952 
	C883.257080,325.262695 883.257080,321.012665 883.257080,316.349609 
	C877.769714,316.349609 872.633301,316.349609 866.498169,316.349335 
M640.997559,296.505371 
	C640.735657,304.964325 640.455078,313.422791 640.243530,321.882996 
	C640.224548,322.640198 640.406860,323.702942 640.912109,324.123901 
	C644.146301,326.818390 647.099060,330.026581 651.858215,330.012756 
	C667.687134,329.966766 683.516479,329.947174 699.344971,330.042267 
	C702.231079,330.059570 703.256104,328.927917 703.017517,326.192352 
	C702.902100,324.869476 702.841125,323.505585 703.028198,322.199310 
	C703.631348,317.989014 701.852966,316.826477 697.733765,316.908203 
	C685.242004,317.155823 672.739746,316.854004 660.247070,317.075684 
	C655.915649,317.152557 654.918640,315.386047 654.885193,311.429596 
	C654.850342,307.296997 656.229797,305.841644 660.393677,305.931763 
	C670.719421,306.155121 681.063965,305.722626 691.379456,306.117035 
	C697.010193,306.332336 695.838440,302.861267 696.033875,299.661896 
	C696.251343,296.101318 696.019531,293.722076 691.199280,293.884583 
	C680.547668,294.243713 669.873840,293.891022 659.212708,294.057312 
	C655.924438,294.108582 654.855164,293.012939 654.909790,289.753021 
	C654.962097,286.625916 655.352173,284.853149 659.200256,284.923401 
	C671.026428,285.139374 682.859680,285.075317 694.689026,284.977539 
	C703.949097,284.901031 702.904785,286.654541 702.998230,276.353882 
	C702.999756,276.187256 702.982117,276.018982 702.999878,275.854279 
	C703.288574,273.172607 702.331360,271.940125 699.393127,271.957611 
	C683.231384,272.053925 667.068542,271.949249 650.906799,272.042389 
	C646.985657,272.065002 640.301758,277.695374 640.391052,280.603668 
	C640.543579,285.573517 640.790405,290.540497 640.997559,296.505371 
M382.500000,272.000000 
	C373.510895,272.000458 364.521088,271.934174 355.532898,272.026245 
	C350.090057,272.081970 346.223602,276.422180 346.343414,280.883514 
	C346.704437,294.325043 346.811035,307.779083 346.671997,321.224701 
	C346.631592,325.131165 348.192993,327.667816 351.452179,328.790588 
	C354.201080,329.737549 357.308441,329.925781 360.261322,329.950470 
	C373.744080,330.063263 387.228607,330.056519 400.711884,329.980499 
	C409.982056,329.928253 408.687408,331.381805 409.088776,321.843323 
	C409.265961,317.632202 407.601135,316.875458 403.881866,316.928101 
	C391.066589,317.109467 378.246796,316.945557 365.429504,317.028259 
	C361.438721,317.054016 358.804810,316.457733 358.863861,311.354126 
	C358.920166,306.483917 361.485596,305.962769 365.222321,305.984741 
	C375.376343,306.044495 385.540466,305.746155 395.681335,306.116364 
	C400.598145,306.295868 402.311035,305.133331 402.203003,299.865570 
	C402.102234,294.952209 400.622803,293.426849 395.915466,293.924652 
	C392.458313,294.290222 388.931488,293.996338 385.435699,293.996338 
	C376.830017,293.996338 368.224365,293.996338 359.767639,293.996338 
	C358.095520,285.839752 358.705780,285.006439 365.801422,285.002991 
	C378.619263,284.996765 391.437653,284.936066 404.254578,285.044159 
	C407.615479,285.072449 409.303223,283.947510 409.011139,280.425262 
	C408.901459,279.102692 408.857147,277.746216 409.021057,276.434906 
	C409.465424,272.879608 407.909119,271.829376 404.472656,271.935852 
	C397.487823,272.152222 390.491547,272.000214 382.500000,272.000000 
M298.008667,305.547729 
	C305.586334,313.387451 313.112549,321.277924 320.769043,329.039856 
	C323.512970,331.821594 332.934265,331.226807 334.720612,328.321045 
	C336.980957,324.644257 338.259857,320.851532 338.119293,316.284302 
	C337.760986,304.639648 338.100952,292.975494 337.970367,281.321289 
	C337.850525,270.625153 339.988373,272.278412 328.377869,271.932465 
	C324.735016,271.823914 323.816925,273.226257 323.954895,276.583130 
	C324.356873,286.362885 324.581085,296.151245 324.730591,305.938416 
	C324.748779,307.126831 324.135010,308.571472 323.317261,309.416473 
	C322.938965,309.807373 321.020050,309.383942 320.385773,308.746490 
	C313.565887,301.892365 306.806335,294.975647 300.148621,287.963654 
	C295.836761,283.422333 291.984558,278.415649 287.443634,274.128876 
	C282.778564,269.724823 276.401581,270.658234 271.566864,274.721161 
	C268.073059,277.657257 270.027771,280.726807 270.017273,283.788757 
	C269.972626,296.776337 269.998199,309.764191 269.998932,322.751923 
	C269.999359,330.099304 270.004639,329.907776 277.196716,330.080139 
	C280.836670,330.167389 282.185028,329.195679 282.086884,325.349182 
	C281.836395,315.531525 281.987030,305.703156 282.020721,295.879211 
	C282.026031,294.331665 282.257935,292.784882 282.385071,291.237762 
	C282.881165,290.987518 283.377258,290.737274 283.873352,290.487000 
	C288.423706,295.337311 292.974030,300.187592 298.008667,305.547729 
M595.502747,306.006104 
	C601.498718,306.006531 607.495605,306.068024 613.490417,305.984955 
	C617.217407,305.933289 619.088196,307.530701 619.005920,311.342529 
	C618.941223,314.339111 618.926147,317.340057 619.007263,320.335876 
	C619.307129,331.409332 616.546265,329.854218 629.281860,329.997437 
	C629.448364,329.999298 629.684631,330.064636 629.770874,329.980255 
	C630.856323,328.918335 632.839355,327.844818 632.851868,326.754303 
	C633.048035,309.601471 633.038635,292.445221 632.875916,275.291656 
	C632.865479,274.193665 631.294800,272.262512 630.314392,272.170990 
	C626.423340,271.807678 622.478333,272.021545 618.994080,272.021545 
	C618.994080,278.210358 618.844910,283.682678 619.045654,289.142090 
	C619.183167,292.879578 617.655701,294.130035 614.027527,294.049255 
	C606.203369,293.875031 598.372620,293.996216 590.544556,293.996307 
	C578.000122,293.996429 578.000122,293.996338 578.000000,281.592468 
	C577.999939,271.911865 577.994751,272.131500 568.144226,271.898407 
	C563.851685,271.796783 562.853210,273.281372 562.917053,277.318176 
	C563.138428,291.305267 563.002502,305.298004 563.002502,319.288605 
	C563.002441,330.582855 562.999023,330.494995 574.242981,330.061035 
	C577.001221,329.954590 578.130554,329.141693 578.039673,326.299835 
	C577.885498,321.474731 578.275696,316.620636 577.921875,311.816711 
	C577.570496,307.046387 579.522583,305.565338 584.017090,305.947205 
	C587.489624,306.242218 591.007385,306.006104 595.502747,306.006104 
M227.136169,281.678741 
	C229.391052,278.790161 231.645935,275.901611 234.657700,272.043427 
	C228.950333,272.043427 224.511353,271.939362 220.084457,272.124115 
	C219.104416,272.165009 217.938263,273.032898 217.247177,273.849487 
	C212.899094,278.987152 208.326660,283.983612 204.475159,289.479980 
	C200.125488,295.687286 197.301407,297.445557 190.074020,295.824738 
	C188.845459,295.549194 187.301926,293.550262 187.149734,292.206451 
	C186.740326,288.591400 187.058334,284.899048 186.991730,281.239136 
	C186.798462,270.620300 188.756317,272.350372 177.809692,271.907349 
	C173.557404,271.735260 172.892487,273.475586 172.934235,277.143982 
	C173.097046,291.453674 173.000641,305.766327 173.000626,320.077881 
	C173.000610,330.717438 172.996109,330.636139 183.514282,330.054260 
	C186.050873,329.913971 187.104584,329.135559 187.032089,326.537140 
	C186.906815,322.047516 186.934540,317.550171 187.046417,313.059723 
	C187.077347,311.818298 187.664276,309.507690 187.942993,309.515808 
	C193.280884,309.670807 199.460327,308.544617 203.722107,310.873810 
	C208.768677,313.631866 212.407501,319.219391 216.206970,323.942169 
	C221.078018,329.996979 229.516312,332.214203 237.025696,328.679016 
	C236.553772,327.833923 236.219635,326.893036 235.608688,326.194092 
	C229.067520,318.710724 222.349564,311.375153 216.034729,303.707001 
	C214.924438,302.358795 214.510834,299.052368 215.389435,297.694855 
	C218.850327,292.347351 222.955185,287.416687 227.136169,281.678741 
M730.500122,272.000000 
	C726.170654,272.000000 721.839844,271.929962 717.512024,272.014282 
	C708.015869,272.199249 709.210388,270.141205 708.942017,280.938995 
	C708.855408,284.421875 710.332153,285.135803 713.402100,285.050995 
	C719.558594,284.881012 725.738281,285.265656 731.879028,284.911346 
	C736.210388,284.661469 737.192993,286.323547 737.088318,290.338440 
	C736.832458,300.156372 737.004883,309.985413 737.004883,319.809998 
	C737.004883,330.161194 737.006348,329.995514 747.260132,330.087341 
	C750.987793,330.120728 752.141907,329.022888 752.074768,325.276794 
	C751.860107,313.291321 752.080811,301.298584 751.938599,289.310944 
	C751.900940,286.137451 752.773621,284.802765 756.146912,284.941406 
	C761.632751,285.166840 767.134827,285.033447 772.629639,284.993713 
	C780.832153,284.934387 779.918457,285.980255 779.997131,277.418274 
	C779.998657,277.251740 779.973450,277.081299 780.000488,276.919281 
	C780.676086,272.864166 778.812683,271.868011 774.960144,271.920715 
	C760.475830,272.118958 745.987061,272.000061 730.500122,272.000000 
M528.002441,297.527771 
	C528.002502,295.198242 528.206604,292.846832 527.959290,290.543854 
	C527.473206,286.017731 529.542419,284.696777 533.776978,284.938171 
	C538.586792,285.212402 543.424622,285.038330 548.249634,284.993103 
	C556.861206,284.912354 555.658569,286.112732 556.108398,277.321014 
	C556.347656,272.644348 554.535095,271.864594 550.372131,271.912170 
	C532.403809,272.117493 514.431519,271.937286 496.461334,272.025482 
	C486.972809,272.072052 488.213440,270.406982 487.934753,280.467590 
	C487.840149,283.882721 488.836426,285.215851 492.414612,285.070007 
	C498.561005,284.819458 504.731476,285.172852 510.879272,284.940216 
	C514.841431,284.790314 516.122314,286.333710 516.057800,290.198883 
	C515.877319,301.011536 515.994690,311.829163 515.995239,322.644806 
	C515.995667,330.175842 515.998535,329.988861 523.578430,330.081818 
	C527.138123,330.125488 528.141174,328.896240 528.067322,325.472992 
	C527.873657,316.491852 528.002319,307.503784 528.002441,297.527771 
M245.289658,327.875702 
	C245.940826,328.623016 246.561386,329.982635 247.248215,330.016968 
	C251.323242,330.220795 255.413605,330.117615 259.739471,330.117615 
	C259.739471,318.239868 259.982178,307.075165 259.529388,295.938751 
	C259.441528,293.778076 256.843475,290.143616 255.055771,289.915741 
	C249.072693,289.153107 242.932083,289.626434 236.906982,289.626434 
	C236.906982,294.439453 236.906982,298.676819 236.906982,303.034515 
	C239.807617,303.207611 242.368408,303.360443 245.280701,303.534241 
	C245.280701,311.694122 245.280701,319.340240 245.289658,327.875702 
M802.927490,291.898682 
	C801.697144,291.128693 800.491272,289.743713 799.232300,289.693604 
	C793.310730,289.457947 787.374634,289.588745 781.330017,289.588745 
	C781.330017,294.331787 781.330017,298.574432 781.330017,302.992157 
	C784.179932,303.156830 786.787659,303.307495 790.022888,303.494415 
	C790.022888,312.441193 790.022888,321.139099 790.022888,329.690552 
	C795.064880,329.690552 799.452698,329.690552 804.071228,329.690552 
	C804.071228,323.847260 804.158936,318.376526 804.049011,312.909760 
	C803.912903,306.141144 803.612854,299.375824 802.927490,291.898682 
M250.590210,271.971283 
	C248.778122,271.971283 246.966049,271.971283 244.910049,271.971283 
	C244.910049,276.688812 244.910049,281.082611 244.910049,285.489471 
	C249.626999,285.489471 254.030502,285.489471 258.622620,285.489471 
	C258.622620,280.932220 258.622620,276.701141 258.622620,271.971375 
	C256.093475,271.971375 253.813736,271.971375 250.590210,271.971283 
M799.219482,271.972198 
	C795.967590,271.972198 792.715637,271.972198 789.517578,271.972198 
	C789.517578,276.917023 789.517578,281.248871 789.517578,285.603088 
	C794.205383,285.603088 798.458191,285.603088 803.126221,285.603088 
	C803.126221,281.781067 803.330200,278.148224 802.989014,274.567291 
	C802.898804,273.620514 801.128235,272.833801 799.219482,271.972198 
z"/>
<path fill="#FFFFFF" opacity="1.000000" stroke="none" 
	d="
M423.331146,306.049316 
	C418.572845,302.974487 415.108521,299.565918 415.935516,293.505676 
	C416.337036,290.563293 416.001678,287.520813 416.005463,284.523651 
	C416.013763,277.931946 421.359711,272.119659 428.050873,272.053070 
	C443.867615,271.895630 459.687164,272.038330 475.505188,271.970215 
	C478.063812,271.959198 478.918182,272.879364 479.057953,275.454987 
	C479.576324,285.006287 479.669525,285.001129 470.099548,285.001251 
	C458.610443,285.001373 447.120178,285.092285 435.632965,284.944427 
	C432.355133,284.902252 430.894958,285.616302 430.871246,289.316681 
	C430.846924,293.113831 432.092377,294.129974 435.769135,294.075073 
	C448.920410,293.878876 462.076355,293.995544 475.230560,293.999146 
	C482.585297,294.001160 484.851410,294.860870 486.209808,302.020081 
	C487.626587,309.487091 489.165588,317.661163 484.036804,324.525574 
	C482.241180,326.928802 478.927582,329.652252 476.251587,329.711273 
	C456.473175,330.147430 436.680695,329.947388 416.222351,329.947388 
	C416.426880,325.593384 416.613617,321.618591 416.830688,316.997711 
	C418.397827,316.997711 420.180389,316.997711 421.962952,316.997681 
	C436.615723,316.997559 451.268616,317.026672 465.921265,316.982513 
	C471.554840,316.965515 473.621124,314.324127 471.773346,309.063324 
	C471.404022,308.011841 469.022186,307.106995 467.556519,307.088837 
	C455.070282,306.934113 442.581024,307.041595 430.093414,306.959229 
	C427.971008,306.945251 425.852112,306.399750 423.331146,306.049316 
z"/>
<path fill="#FE6426" opacity="1.000000" stroke="none" 
	d="
M866.997559,316.349487 
	C872.633301,316.349609 877.769714,316.349609 883.257080,316.349609 
	C883.257080,321.012665 883.257080,325.262695 883.257080,329.837952 
	C882.037048,329.933624 880.749207,330.121307 879.461243,330.122620 
	C861.128418,330.141022 842.795532,330.156128 824.462769,330.123718 
	C815.937561,330.108643 812.204956,326.413269 812.179443,318.003357 
	C812.145142,306.670471 812.139526,295.337250 812.184448,284.004395 
	C812.217346,275.703003 815.853638,272.007294 824.006775,271.985077 
	C837.839661,271.947357 851.672791,271.940216 865.505554,271.983643 
	C873.907227,272.010010 877.569763,275.765991 877.602905,284.287384 
	C877.634583,292.432861 877.609680,300.578583 877.609680,309.049225 
	C872.688843,309.049225 868.108704,309.049225 862.981628,309.049225 
	C862.981628,301.409210 862.981628,293.843262 862.981628,286.053650 
	C850.830627,286.053650 839.219727,286.053650 827.195435,286.053650 
	C827.195435,295.918121 827.195435,305.791138 827.195435,316.349335 
	C840.305603,316.349335 853.401917,316.349335 866.997559,316.349487 
z"/>
<path fill="#FFFFFF" opacity="1.000000" stroke="none" 
	d="
M640.997559,296.007019 
	C640.790405,290.540497 640.543579,285.573517 640.391052,280.603668 
	C640.301758,277.695374 646.985657,272.065002 650.906799,272.042389 
	C667.068542,271.949249 683.231384,272.053925 699.393127,271.957611 
	C702.331360,271.940125 703.288574,273.172607 702.999878,275.854279 
	C702.982117,276.018982 702.999756,276.187256 702.998230,276.353882 
	C702.904785,286.654541 703.949097,284.901031 694.689026,284.977539 
	C682.859680,285.075317 671.026428,285.139374 659.200256,284.923401 
	C655.352173,284.853149 654.962097,286.625916 654.909790,289.753021 
	C654.855164,293.012939 655.924438,294.108582 659.212708,294.057312 
	C669.873840,293.891022 680.547668,294.243713 691.199280,293.884583 
	C696.019531,293.722076 696.251343,296.101318 696.033875,299.661896 
	C695.838440,302.861267 697.010193,306.332336 691.379456,306.117035 
	C681.063965,305.722626 670.719421,306.155121 660.393677,305.931763 
	C656.229797,305.841644 654.850342,307.296997 654.885193,311.429596 
	C654.918640,315.386047 655.915649,317.152557 660.247070,317.075684 
	C672.739746,316.854004 685.242004,317.155823 697.733765,316.908203 
	C701.852966,316.826477 703.631348,317.989014 703.028198,322.199310 
	C702.841125,323.505585 702.902100,324.869476 703.017517,326.192352 
	C703.256104,328.927917 702.231079,330.059570 699.344971,330.042267 
	C683.516479,329.947174 667.687134,329.966766 651.858215,330.012756 
	C647.099060,330.026581 644.146301,326.818390 640.912109,324.123901 
	C640.406860,323.702942 640.224548,322.640198 640.243530,321.882996 
	C640.455078,313.422791 640.735657,304.964325 640.997559,296.007019 
z"/>
<path fill="#FFFFFF" opacity="1.000000" stroke="none" 
	d="
M383.000000,272.000000 
	C390.491547,272.000214 397.487823,272.152222 404.472656,271.935852 
	C407.909119,271.829376 409.465424,272.879608 409.021057,276.434906 
	C408.857147,277.746216 408.901459,279.102692 409.011139,280.425262 
	C409.303223,283.947510 407.615479,285.072449 404.254578,285.044159 
	C391.437653,284.936066 378.619263,284.996765 365.801422,285.002991 
	C358.705780,285.006439 358.095520,285.839752 359.767639,293.996338 
	C368.224365,293.996338 376.830017,293.996338 385.435699,293.996338 
	C388.931488,293.996338 392.458313,294.290222 395.915466,293.924652 
	C400.622803,293.426849 402.102234,294.952209 402.203003,299.865570 
	C402.311035,305.133331 400.598145,306.295868 395.681335,306.116364 
	C385.540466,305.746155 375.376343,306.044495 365.222321,305.984741 
	C361.485596,305.962769 358.920166,306.483917 358.863861,311.354126 
	C358.804810,316.457733 361.438721,317.054016 365.429504,317.028259 
	C378.246796,316.945557 391.066589,317.109467 403.881866,316.928101 
	C407.601135,316.875458 409.265961,317.632202 409.088776,321.843323 
	C408.687408,331.381805 409.982056,329.928253 400.711884,329.980499 
	C387.228607,330.056519 373.744080,330.063263 360.261322,329.950470 
	C357.308441,329.925781 354.201080,329.737549 351.452179,328.790588 
	C348.192993,327.667816 346.631592,325.131165 346.671997,321.224701 
	C346.811035,307.779083 346.704437,294.325043 346.343414,280.883514 
	C346.223602,276.422180 350.090057,272.081970 355.532898,272.026245 
	C364.521088,271.934174 373.510895,272.000458 383.000000,272.000000 
z"/>
<path fill="#FFFFFF" opacity="1.000000" stroke="none" 
	d="
M297.766541,305.292786 
	C292.974030,300.187592 288.423706,295.337311 283.873352,290.487000 
	C283.377258,290.737274 282.881165,290.987518 282.385071,291.237762 
	C282.257935,292.784882 282.026031,294.331665 282.020721,295.879211 
	C281.987030,305.703156 281.836395,315.531525 282.086884,325.349182 
	C282.185028,329.195679 280.836670,330.167389 277.196716,330.080139 
	C270.004639,329.907776 269.999359,330.099304 269.998932,322.751923 
	C269.998199,309.764191 269.972626,296.776337 270.017273,283.788757 
	C270.027771,280.726807 268.073059,277.657257 271.566864,274.721161 
	C276.401581,270.658234 282.778564,269.724823 287.443634,274.128876 
	C291.984558,278.415649 295.836761,283.422333 300.148621,287.963654 
	C306.806335,294.975647 313.565887,301.892365 320.385773,308.746490 
	C321.020050,309.383942 322.938965,309.807373 323.317261,309.416473 
	C324.135010,308.571472 324.748779,307.126831 324.730591,305.938416 
	C324.581085,296.151245 324.356873,286.362885 323.954895,276.583130 
	C323.816925,273.226257 324.735016,271.823914 328.377869,271.932465 
	C339.988373,272.278412 337.850525,270.625153 337.970367,281.321289 
	C338.100952,292.975494 337.760986,304.639648 338.119293,316.284302 
	C338.259857,320.851532 336.980957,324.644257 334.720612,328.321045 
	C332.934265,331.226807 323.512970,331.821594 320.769043,329.039856 
	C313.112549,321.277924 305.586334,313.387451 297.766541,305.292786 
z"/>
<path fill="#FFFFFF" opacity="1.000000" stroke="none" 
	d="
M595.003906,306.006104 
	C591.007385,306.006104 587.489624,306.242218 584.017090,305.947205 
	C579.522583,305.565338 577.570496,307.046387 577.921875,311.816711 
	C578.275696,316.620636 577.885498,321.474731 578.039673,326.299835 
	C578.130554,329.141693 577.001221,329.954590 574.242981,330.061035 
	C562.999023,330.494995 563.002441,330.582855 563.002502,319.288605 
	C563.002502,305.298004 563.138428,291.305267 562.917053,277.318176 
	C562.853210,273.281372 563.851685,271.796783 568.144226,271.898407 
	C577.994751,272.131500 577.999939,271.911865 578.000000,281.592468 
	C578.000122,293.996338 578.000122,293.996429 590.544556,293.996307 
	C598.372620,293.996216 606.203369,293.875031 614.027527,294.049255 
	C617.655701,294.130035 619.183167,292.879578 619.045654,289.142090 
	C618.844910,283.682678 618.994080,278.210358 618.994080,272.021545 
	C622.478333,272.021545 626.423340,271.807678 630.314392,272.170990 
	C631.294800,272.262512 632.865479,274.193665 632.875916,275.291656 
	C633.038635,292.445221 633.048035,309.601471 632.851868,326.754303 
	C632.839355,327.844818 630.856323,328.918335 629.770874,329.980255 
	C629.684631,330.064636 629.448364,329.999298 629.281860,329.997437 
	C616.546265,329.854218 619.307129,331.409332 619.007263,320.335876 
	C618.926147,317.340057 618.941223,314.339111 619.005920,311.342529 
	C619.088196,307.530701 617.217407,305.933289 613.490417,305.984955 
	C607.495605,306.068024 601.498718,306.006531 595.003906,306.006104 
z"/>
<path fill="#FFFFFF" opacity="1.000000" stroke="none" 
	d="
M226.978607,282.005005 
	C222.955185,287.416687 218.850327,292.347351 215.389435,297.694855 
	C214.510834,299.052368 214.924438,302.358795 216.034729,303.707001 
	C222.349564,311.375153 229.067520,318.710724 235.608688,326.194092 
	C236.219635,326.893036 236.553772,327.833923 237.025696,328.679016 
	C229.516312,332.214203 221.078018,329.996979 216.206970,323.942169 
	C212.407501,319.219391 208.768677,313.631866 203.722107,310.873810 
	C199.460327,308.544617 193.280884,309.670807 187.942993,309.515808 
	C187.664276,309.507690 187.077347,311.818298 187.046417,313.059723 
	C186.934540,317.550171 186.906815,322.047516 187.032089,326.537140 
	C187.104584,329.135559 186.050873,329.913971 183.514282,330.054260 
	C172.996109,330.636139 173.000610,330.717438 173.000626,320.077881 
	C173.000641,305.766327 173.097046,291.453674 172.934235,277.143982 
	C172.892487,273.475586 173.557404,271.735260 177.809692,271.907349 
	C188.756317,272.350372 186.798462,270.620300 186.991730,281.239136 
	C187.058334,284.899048 186.740326,288.591400 187.149734,292.206451 
	C187.301926,293.550262 188.845459,295.549194 190.074020,295.824738 
	C197.301407,297.445557 200.125488,295.687286 204.475159,289.479980 
	C208.326660,283.983612 212.899094,278.987152 217.247177,273.849487 
	C217.938263,273.032898 219.104416,272.165009 220.084457,272.124115 
	C224.511353,271.939362 228.950333,272.043427 234.657700,272.043427 
	C231.645935,275.901611 229.391052,278.790161 226.978607,282.005005 
z"/>
<path fill="#FFFFFF" opacity="1.000000" stroke="none" 
	d="
M731.000061,272.000000 
	C745.987061,272.000061 760.475830,272.118958 774.960144,271.920715 
	C778.812683,271.868011 780.676086,272.864166 780.000488,276.919281 
	C779.973450,277.081299 779.998657,277.251740 779.997131,277.418274 
	C779.918457,285.980255 780.832153,284.934387 772.629639,284.993713 
	C767.134827,285.033447 761.632751,285.166840 756.146912,284.941406 
	C752.773621,284.802765 751.900940,286.137451 751.938599,289.310944 
	C752.080811,301.298584 751.860107,313.291321 752.074768,325.276794 
	C752.141907,329.022888 750.987793,330.120728 747.260132,330.087341 
	C737.006348,329.995514 737.004883,330.161194 737.004883,319.809998 
	C737.004883,309.985413 736.832458,300.156372 737.088318,290.338440 
	C737.192993,286.323547 736.210388,284.661469 731.879028,284.911346 
	C725.738281,285.265656 719.558594,284.881012 713.402100,285.050995 
	C710.332153,285.135803 708.855408,284.421875 708.942017,280.938995 
	C709.210388,270.141205 708.015869,272.199249 717.512024,272.014282 
	C721.839844,271.929962 726.170654,272.000000 731.000061,272.000000 
z"/>
<path fill="#FFFFFF" opacity="1.000000" stroke="none" 
	d="
M528.002441,298.023132 
	C528.002319,307.503784 527.873657,316.491852 528.067322,325.472992 
	C528.141174,328.896240 527.138123,330.125488 523.578430,330.081818 
	C515.998535,329.988861 515.995667,330.175842 515.995239,322.644806 
	C515.994690,311.829163 515.877319,301.011536 516.057800,290.198883 
	C516.122314,286.333710 514.841431,284.790314 510.879272,284.940216 
	C504.731476,285.172852 498.561005,284.819458 492.414612,285.070007 
	C488.836426,285.215851 487.840149,283.882721 487.934753,280.467590 
	C488.213440,270.406982 486.972809,272.072052 496.461334,272.025482 
	C514.431519,271.937286 532.403809,272.117493 550.372131,271.912170 
	C554.535095,271.864594 556.347656,272.644348 556.108398,277.321014 
	C555.658569,286.112732 556.861206,284.912354 548.249634,284.993103 
	C543.424622,285.038330 538.586792,285.212402 533.776978,284.938171 
	C529.542419,284.696777 527.473206,286.017731 527.959290,290.543854 
	C528.206604,292.846832 528.002502,295.198242 528.002441,298.023132 
z"/>
<path fill="#FE6426" opacity="1.000000" stroke="none" 
	d="
M245.285187,327.431030 
	C245.280701,319.340240 245.280701,311.694122 245.280701,303.534241 
	C242.368408,303.360443 239.807617,303.207611 236.906982,303.034515 
	C236.906982,298.676819 236.906982,294.439453 236.906982,289.626434 
	C242.932083,289.626434 249.072693,289.153107 255.055771,289.915741 
	C256.843475,290.143616 259.441528,293.778076 259.529388,295.938751 
	C259.982178,307.075165 259.739471,318.239868 259.739471,330.117615 
	C255.413605,330.117615 251.323242,330.220795 247.248215,330.016968 
	C246.561386,329.982635 245.940826,328.623016 245.285187,327.431030 
z"/>
<path fill="#FE6120" opacity="1.000000" stroke="none" 
	d="
M803.155579,292.253906 
	C803.612854,299.375824 803.912903,306.141144 804.049011,312.909760 
	C804.158936,318.376526 804.071228,323.847260 804.071228,329.690552 
	C799.452698,329.690552 795.064880,329.690552 790.022888,329.690552 
	C790.022888,321.139099 790.022888,312.441193 790.022888,303.494415 
	C786.787659,303.307495 784.179932,303.156830 781.330017,302.992157 
	C781.330017,298.574432 781.330017,294.331787 781.330017,289.588745 
	C787.374634,289.588745 793.310730,289.457947 799.232300,289.693604 
	C800.491272,289.743713 801.697144,291.128693 803.155579,292.253906 
z"/>
<path fill="#FE6426" opacity="1.000000" stroke="none" 
	d="
M251.062103,271.971313 
	C253.813736,271.971375 256.093475,271.971375 258.622620,271.971375 
	C258.622620,276.701141 258.622620,280.932220 258.622620,285.489471 
	C254.030502,285.489471 249.626999,285.489471 244.910049,285.489471 
	C244.910049,281.082611 244.910049,276.688812 244.910049,271.971283 
	C246.966049,271.971283 248.778122,271.971283 251.062103,271.971313 
z"/>
<path fill="#FE6426" opacity="1.000000" stroke="none" 
	d="
M799.674377,271.972900 
	C801.128235,272.833801 802.898804,273.620514 802.989014,274.567291 
	C803.330200,278.148224 803.126221,281.781067 803.126221,285.603088 
	C798.458191,285.603088 794.205383,285.603088 789.517578,285.603088 
	C789.517578,281.248871 789.517578,276.917023 789.517578,271.972198 
	C792.715637,271.972198 795.967590,271.972198 799.674377,271.972900 
z"/>
</svg>